<svg width="512" height="512" viewBox="0 0 512 512" fill="none" xmlns="http://www.w3.org/2000/svg">
<path d="M241.9 445.6C231 449.1 219.7 451.3 208.4 453.5C181.4 458.7 154.3 461.3 126.9 459.1C125.1 462.6 124.2 466.5 122.2 469.9C120.4 473 118.5 476 116.5 478.9C130.7 478.7 144.9 477.9 159.2 476.9C174.8 475.9 190.2 474.9 205.6 472.3C217.6 470.3 233.3 469.5 242.9 461.2C248.7 456.2 252.1 448.2 254.1 440.4C250.3 442.6 246.1 444.3 241.9 445.6ZM116.5 455.5C111.1 439.2 107.9 422 105.5 404.9C101.8 414 101.1 423 102.4 432.8C103.6 441.6 105.3 450.3 106.1 459.1C106.5 463.7 107 468.6 108.7 472.9C110.8 470 112.8 466.9 114.1 463.8C115.1 461.3 115.9 458.8 117 456.3C116.7 456.1 116.6 455.8 116.5 455.5ZM431.4 377.5C420.7 384.6 409.7 390.7 397.6 395.2C377.6 402.6 354.3 413.9 332.5 408.7C324 406.7 314.2 402.4 313.1 392.6C312.1 384.2 316.6 376 320.5 368.9C324.7 361.3 328.8 354.8 328.8 345.9C328.8 337.7 327.4 328.6 320.3 323.5C313.9 318.9 305 318.5 297.4 318.8C289.6 319 281.8 320 274.3 321.9C259.6 325.5 242.9 331.7 233.3 344.1C230.4 347.9 228.7 352 228.1 356.1C228.3 355.9 228.5 355.8 228.7 355.6C236.8 349.8 246.8 347.3 256.4 345.3C261.3 344.3 266.1 343.1 270.9 341.8C276 340.5 281.9 339.1 287.1 340.7C298.5 344.2 304.9 354.9 304.3 366.7C303.8 377.4 299.5 387.6 299.6 398.4C299.7 409.6 303.7 419.6 313.9 425.3C326.2 432.2 339.3 431.8 352.5 427.8C365.7 423.8 378.1 418 390.7 412.7C401.6 408.1 414.7 404.9 424.2 397.4C424.6 396.8 425.1 396.4 425.7 396C430.8 388.3 436.5 380.5 440.9 372.2C437.4 374.1 433.9 375.8 431.4 377.5ZM139.3 300.4C133.5 299.6 125.1 298.1 119.8 301.4C115.7 304 112.8 307.8 109.3 311.1C104.3 315.8 96.7 319.7 89.6 318.3C76.4 315.6 70.7 300 67.5 288.5C64 275.7 62.3 262.5 60.8 249.3C58.9 232.3 58.9 214 62.1 196.7C61.9 197 61.6 197.3 61.4 197.5C57.2 202.2 53.1 207.2 50.5 212.9C44.9 225 47.8 238.7 48.4 251.5C48.9 264.6 51.5 277.4 54.5 290.1C56.9 300.6 59.8 311.6 66 320.6C72 329.3 82.9 340.8 94.7 338.3C105.3 336.1 112 326.1 120.4 320.1C133.8 310.5 150 309.6 163.5 316.7C158.1 308.2 149.2 301.7 139.3 300.4ZM196.9 129.3C193.6 126.8 189.7 125.2 186 123.7C177.6 120.3 170.2 116.4 164.7 108.7C164.7 108.6 164.6 108.6 164.6 108.5C164.3 110.7 164 112.9 163.8 115.1C163.5 117.5 161.9 121.9 163 124.1C163.8 125.8 169 126.9 170.6 127.5C177.6 130 185.4 133.2 188.5 140.6C189.3 142.6 190.1 145 190.3 147.4C190.4 147.3 190.6 147.3 190.7 147.2C191.6 146.8 192.6 146.5 193.5 146.2C195 143.9 196.8 142.2 199.1 140.7C200.2 136.4 201 132.5 196.9 129.3ZM452.1 234.4C446.9 235.7 441.7 235.7 436.3 235.9C431.6 236.1 426.5 236.3 422.9 239.8C418.2 244.4 416.9 251.2 416.7 257.8C418.5 256.1 420.7 254.8 423.1 253.8C427.2 252.2 431.3 252 435.7 252C439.5 252 441.9 252 444.3 248.8C446.4 245.9 447.6 242.6 449.4 239.6C450.5 237.8 451.5 236.1 452.5 234.3C452.4 234.3 452.3 234.3 452.1 234.4Z" fill="#10B981"/>
<path d="M458.8 183.5C454.6 175 448.6 164.6 440.1 159.7C436.1 157.3 431.4 155.9 427.1 158.7C423 161.4 420.2 165 418.9 169.7C416.4 178.7 416 189.8 409 196.8C401.6 204.2 391.6 206.7 382.4 201C374.4 196.1 367.8 186.7 364.4 178.1C359.2 164.8 357 150.8 354.3 136.9C351.9 124.7 349.1 112.6 346 100.5C336.4 106.5 326.4 112.1 316.6 117.8C307.4 123.1 297.9 129.4 287.2 130.7C277.9 131.9 264.7 130 259.1 121.3C254.8 114.6 256.2 106.7 259.5 99.9C263.6 91.3 273.8 80.8 270 70.6C266.1 60.1 254.7 53.5 244.2 51.3C224.7 47.3 199.9 51 184.1 63.7C177.1 69.3 170.5 77.2 169.1 86.3C167.7 95.5 172.6 105.8 180.9 110.3C188.7 114.6 199 116.3 205.3 123.1C209 127.1 211.2 131.8 210.4 137.4C210 140.2 209.6 143.7 208.4 146.2C208 147 207.4 147.5 206.7 148C206.7 149.4 206.1 150.8 204.8 151.9C202 154.3 197.7 155.6 194.3 156.9C190.1 158.5 185.9 160.1 181.6 161.3C167.6 165.5 154.1 171.3 140.1 175.3C126.8 179.1 113.2 183.4 99.4 185.4C91.3 186.6 83.1 186.9 74.9 187C69.7 204.8 69.4 224.6 70.7 242.9C71.4 253 72.7 263.3 74.6 273.3C76.5 283.6 78.9 295.6 85.5 304C87.7 306.9 90.4 308.7 93.4 308.4C99.1 307.8 103 303.3 106.8 299.4C110.6 295.5 114.8 291.9 120.3 290.5C126.2 289 132.5 289.4 138.4 290.1C150 291.5 160.1 296.7 167.8 305.5C182.3 322.1 183.6 346.6 166.1 361.4C161.4 365.4 156 368.3 150.6 371.2C145.4 373.9 139.5 376.4 133.5 376.7C128.3 377 121.2 375 116.8 378.5C116.7 378.6 116.6 378.7 116.4 378.9C115.7 381.2 114.9 383.5 114 385.7C114 386.1 114 386.5 113.9 386.9C113.8 396.1 116 405.1 117.4 414.2C119.2 426 121.5 437.5 125 448.9C150.9 451.4 177 449.2 202.5 444.4C213.3 442.4 224.2 440.3 234.8 437.2C241.2 435.3 248.9 433.1 253.8 428.4C260 422.4 260.1 413.3 252.8 408C244 401.5 234.7 397 227.7 388.2C216.5 374 213.1 354.9 223.8 339.5C233 326.4 248.8 318.6 263.8 314.2C278.7 309.7 295.2 307.1 310.7 309.5C319.7 310.9 328.7 315.3 333.4 323.5C338.1 331.7 339.1 340.9 338.4 350.2C337.7 359 333.4 366 329.3 373.6C326.8 378.1 319.7 388.7 323.8 393.9C326.5 397.4 332.6 398.7 336.7 399.3C342 400 347.4 399.8 352.6 398.9C364.1 397 375.1 392.9 385.9 388.8C397.4 384.4 408.5 380 418.9 373.4C423.5 370.5 428 367.7 432.6 365C433.9 364.3 436.4 363.1 438.3 361.7C438.2 361.4 438.2 361.1 438.1 360.9C444 357.2 449.9 352.1 447.3 346.3C445.2 339.3 437 330.1 434.6 327.3C422.2 312.7 410.2 296.1 407.6 276.6C405.6 262 404.1 243.3 415.9 232.4C422.3 226.5 430.7 226.1 438.9 225.9C447.9 225.7 454.8 223.7 459.5 215.3C465.5 205 463.8 193.6 458.8 183.5Z" fill="#2ADC82"/>
</svg>
